<?xml version="1.0" standalone="no"?>
<!DOCTYPE svg PUBLIC "-//W3C//DTD SVG 20010904//EN"
 "http://www.w3.org/TR/2001/REC-SVG-20010904/DTD/svg10.dtd">
<svg version="1.0" xmlns="http://www.w3.org/2000/svg"
 width="597.000000pt" height="597.000000pt" viewBox="0 0 597.000000 597.000000"
 preserveAspectRatio="xMidYMid meet">
<metadata>
Created by potrace 1.11, written by Peter Selinger 2001-2013
</metadata>
<g transform="translate(0.000000,597.000000) scale(0.100000,-0.100000)"
fill="#000000" stroke="none">
<path d="M2758 5635 c-2 -2 -33 -6 -70 -9 -37 -4 -75 -8 -85 -10 -10 -2 -40
-7 -68 -10 -92 -13 -116 -17 -238 -47 -142 -35 -338 -96 -420 -133 -31 -14
-57 -23 -57 -21 0 2 -26 -10 -57 -26 -31 -16 -60 -29 -63 -29 -16 0 -245 -130
-345 -196 -309 -203 -589 -468 -783 -744 -26 -36 -49 -67 -52 -70 -4 -3 -24
-34 -45 -70 -22 -36 -50 -81 -63 -100 -41 -61 -179 -351 -222 -467 -23 -61
-55 -158 -71 -215 -16 -57 -32 -111 -35 -120 -5 -17 138 -18 2899 -18 l2905 0
-15 58 c-77 303 -220 623 -400 896 -37 55 -69 103 -73 106 -3 3 -25 32 -50 65
-48 65 -67 88 -150 179 -76 86 -163 170 -250 246 -41 36 -77 67 -80 70 -18 20
-216 161 -297 213 -98 61 -329 182 -433 226 -109 46 -313 114 -408 136 -9 2
-46 11 -82 20 -58 14 -226 43 -355 60 -50 7 -531 16 -537 10z"/>
<path d="M59 3258 c0 -7 -2 -20 -4 -28 -7 -29 -35 -215 -35 -232 0 -17 148
-18 2966 -18 l2966 0 -7 58 c-11 93 -16 127 -30 182 -2 8 -4 23 -4 33 -1 16
-147 17 -2926 17 -2333 0 -2925 -3 -2926 -12z"/>
<path d="M8 2858 c-2 -7 -5 -68 -7 -135 l-2 -123 2986 0 2986 0 -4 133 c-3 72
-6 133 -6 135 -1 1 -1339 2 -2975 2 -2370 0 -2975 -3 -2978 -12z"/>
<path d="M7 2474 c-3 -3 -4 -11 -2 -17 2 -7 6 -46 10 -87 3 -41 7 -84 10 -95
2 -11 4 -26 4 -32 1 -10 599 -13 2955 -13 l2954 0 6 38 c7 41 13 93 17 162 l4
45 -2976 3 c-1637 1 -2978 -1 -2982 -4z"/>
<path d="M65 2038 c7 -41 28 -131 41 -170 5 -17 134 -18 2879 -18 l2874 0 10
38 c18 66 41 167 41 180 0 9 -592 12 -2926 12 l-2926 0 7 -42z"/>
<path d="M179 1633 c10 -27 31 -78 46 -115 l27 -68 2733 0 2733 0 17 43 c10
23 30 75 45 115 l28 72 -2823 0 -2823 0 17 -47z"/>
<path d="M330 1294 c0 -7 50 -99 93 -171 l32 -53 2531 0 2531 0 61 108 c34 59
62 111 62 115 0 4 -1195 7 -2655 7 -1460 0 -2655 -3 -2655 -6z"/>
<path d="M601 858 c18 -24 53 -67 77 -95 l44 -53 2263 0 2263 0 44 52 c24 29
59 72 77 96 l33 42 -2417 0 -2417 0 33 -42z"/>
<path d="M926 492 c5 -5 48 -43 96 -85 l88 -77 1875 0 1875 0 88 77 c48 42 91
80 97 85 5 4 -922 8 -2060 8 -1138 0 -2065 -4 -2059 -8z"/>
</g>
</svg>
